P3
2 2
255
254 5 5 200 50 5 
16 33 187 166 33 18 
